
<svg xmlns="http://www.w3.org/2000/svg" viewBox="0 0 150.06 30.5">
  <path fill="#f15c22" d="m0,0h30.12v30.5H0V0Z"/>
  <path fill="#fff" d="m84.22,6.04c.26,0,.32.32.32.58.06,1.04.13,2.01.13,3.05.06.97.06,1.95.06,2.92.58-.45,1.1-.91,1.74-1.1,1.03-.45,2.26-.45,3.29.06,1.1.58,1.81,1.62,2.19,2.73.32,1.1.45,2.27.39,3.37-.13,1.36-.45,2.66-1.23,3.76-.45.65-1.03,1.17-1.81,1.43-1.23.45-2.51.26-3.61-.39-.32-.19-.64-.52-.9-.78-.13.39-.19.78-.32,1.17-.58,0-1.1.06-1.68-.06.19-.91.19-1.88.26-2.79.06-3.31,0-6.62,0-9.86-.06-1.3,0-2.6-.19-3.83.39-.13.9-.26,1.35-.26Zm4.26,6.81c-.52-.13-1.03-.13-1.48-.06-.9.13-1.61.78-2.19,1.43v5.91c0,.19.13.32.26.39.9.84,2.19,1.23,3.35.97.58-.13,1.1-.52,1.35-1.04.45-.71.58-1.56.64-2.4.06-.65.13-1.3.06-1.88,0-.71-.19-1.49-.58-2.14-.32-.65-.84-1.04-1.42-1.17Zm7.42-6.36c.32-.13.77-.13,1.1.06.32.19.58.52.71.84.19.78-.39,1.62-1.16,1.69-.58.06-1.23-.26-1.42-.91-.26-.58.13-1.43.77-1.69Zm-53.33,1.36c.84-.58,1.87-1.04,2.9-1.04,1.1,0,2.19.06,3.16.52.39.19.77.39,1.16.65-.26.45-.58.78-.9,1.17-.39-.19-.77-.45-1.23-.65-1.03-.39-2.26-.45-3.29,0-.9.32-1.61,1.04-2.06,1.88-.26.65-.52,1.3-.64,1.95-.13.65-.13,1.3-.19,1.95,0,.84-.06,1.75,0,2.6.13,1.23.58,2.4,1.35,3.31.71.84,1.74,1.3,2.84,1.43.58,0,1.1,0,1.68-.13.64-.13,1.23-.52,1.87-.78.32.32.64.78.97,1.17-.45.26-.9.52-1.42.71-1.29.52-2.77.58-4.13.39-1.03-.19-1.93-.71-2.71-1.36-.9-.78-1.55-1.82-1.93-2.92-.26-.78-.39-1.56-.45-2.34,0-.58-.13-1.17,0-1.82,0-1.1.19-2.27.64-3.31.45-1.3,1.23-2.53,2.39-3.37Z"/>
  <path fill="#fff" d="m125.24,8.5c.58-.19,1.16-.32,1.81-.45-.13,1.1-.19,2.21-.19,3.37.9,0,1.87,0,2.77.06-.13.45-.32.84-.52,1.23h-2.39v3.11c0,.78.06,1.62,0,2.47,0,.91,0,1.88.06,2.79,0,.39.39.65.71.78.58.13,1.16.06,1.74-.06.13.32.19.71.19,1.04-.52.26-1.1.32-1.68.39-.77,0-1.68-.13-2.26-.71-.45-.45-.45-1.17-.52-1.75-.06-1.3,0-2.66-.06-3.96v-4.02h-1.48v-1.3h1.48c.19-1.04.19-2.08.32-2.99Zm-68.36,2.6c.45,0,.97,0,1.42.13,1.03.32,1.93,1.1,2.45,2.01.45.84.77,1.75.84,2.73.06,1.3.13,2.6-.32,3.83-.39,1.17-1.16,2.21-2.26,2.79-1.1.58-2.39.65-3.55.32-1.03-.26-1.93-.97-2.58-1.88-.64-.97-.9-2.14-.9-3.37,0-1.1-.06-2.27.32-3.37.32-1.04,1.03-2.01,2-2.66.45-.26.9-.52,1.42-.58.39.06.77.06,1.16.06Zm-.9,1.49c-.58.13-1.16.52-1.48,1.04-.45.78-.58,1.69-.58,2.6-.06.65,0,1.3.06,1.95.13.78.26,1.62.64,2.34.39.78,1.23,1.1,2.06,1.17.77.06,1.61-.13,2.19-.78.45-.52.71-1.1.77-1.82.13-.84.13-1.69.06-2.47,0-.84-.13-1.75-.45-2.6-.19-.52-.58-.91-1.03-1.17-.71-.39-1.48-.45-2.26-.26Zm8.77-1.1c.52-.19,1.03-.32,1.61-.39.19.52.32,1.04.39,1.62.39-.19.64-.52,1.03-.71.77-.58,1.74-.91,2.71-.91.19,0,.45.06.64.19.32.19.64.32.97.58.26.26.45.65.64.97.45-.19.77-.58,1.16-.84.64-.45,1.42-.84,2.32-.91.77-.06,1.55.19,2.13.71.26.26.52.52.64.84.13.32.19.65.19,1.04.13,1.82.06,3.7.13,5.52v3.7h-1.81v-5.52c0-1.17,0-2.34-.06-3.57-.06-.39-.26-.71-.58-.97-.32-.19-.77-.19-1.23-.19-.71.06-1.29.52-1.87.97-.26.19-.52.45-.77.65-.06.06-.06.19-.06.26v8.31h-1.81v-8.05c0-.52,0-1.1-.19-1.56-.39-.52-1.1-.65-1.68-.45-.9.19-1.68.78-2.39,1.43-.13.06-.13.19-.13.32v8.37h-1.55c-.06-2.86,0-5.71-.13-8.57,0-.65,0-1.3-.13-1.95-.06-.32-.19-.65-.19-.91Zm30.76-.06c.58-.06,1.16-.19,1.74-.32.06,1.62.06,3.24.06,4.8v6.94h-1.81v-9.93c0-.45-.06-1.04,0-1.49Zm23.15-.26c1.23.19,2.26,1.36,2.32,2.66.06,1.88,0,3.83,0,5.71v.58c0,.39,0,.78.13,1.1.07.39.45.58.71.78-.26.32-.45.78-.77,1.04-.19.19-.45,0-.58-.13-.45-.32-.71-.78-.97-1.3-.39.19-.65.58-1.1.78-.65.45-1.42.65-2.26.65-.71,0-1.42-.13-2.06-.45-1.03-.58-1.61-1.75-1.55-2.92,0-1.1.58-2.21,1.42-2.86,1.03-.78,2.39-1.04,3.68-1.17.58-.06,1.16-.06,1.81-.06,0-.58,0-1.17-.13-1.75-.07-.45-.32-.97-.77-1.23-.52-.26-1.16-.32-1.74-.19-1.1.13-2.13.58-3.03,1.23-.26-.32-.52-.65-.71-1.04-.13-.19.07-.32.19-.39,1.23-.65,2.52-1.23,3.93-1.23h.58c.32.13.58.13.9.19Zm-.77,5.78c-.58.06-1.1.06-1.68.19-.64.19-1.22.58-1.61,1.17-.19.32-.19.71-.19,1.1s-.06.84.13,1.23c.13.39.45.78.84.91.45.19.97.19,1.48.19.58-.06,1.1-.39,1.55-.78.39-.32.77-.71.77-1.23.06-.91.06-1.88.06-2.79-.45.06-.9-.06-1.35,0Zm19.6-5.71c1.03.26,1.93.91,2.58,1.75.52.71.84,1.49.97,2.34.13.78.19,1.62.13,2.47,0,1.36-.45,2.66-1.22,3.7-.65.84-1.68,1.36-2.64,1.56-1.23.19-2.58,0-3.68-.78-.9-.65-1.48-1.69-1.81-2.79-.19-.58-.19-1.1-.26-1.69,0-.97,0-1.88.13-2.86.26-1.04.77-2.08,1.55-2.86.58-.58,1.35-.91,2.13-1.04.77,0,1.48.06,2.13.19Zm-1.93,1.36c-.84.13-1.55.78-1.81,1.56-.32.84-.32,1.75-.32,2.6s0,1.69.19,2.47c.13.58.26,1.1.65,1.56.32.45.9.71,1.42.78.19.06.45.06.64.06h.39c.45-.06.84-.19,1.23-.39.45-.26.77-.71.97-1.23.19-.58.26-1.23.32-1.82,0-.71.07-1.43,0-2.21-.06-.78-.13-1.56-.51-2.21-.32-.52-.77-.91-1.35-1.17-.58-.13-1.23-.13-1.81,0Zm8.71-1.04c.58-.13,1.1-.32,1.61-.45.32.58.32,1.23.39,1.82.26-.19.52-.45.77-.71.77-.78,1.93-1.23,3.03-1.04v.13c-.26.52-.39,1.1-.64,1.69,0,.13-.19.06-.26.06-.45,0-1.03,0-1.42.26-.45.26-.77.58-1.1.97-.32.39-.26.91-.26,1.36,0,.65-.07,1.3,0,1.95v5.32h-1.81v-5.91c0-1.36,0-2.66-.06-4.02-.06-.52-.19-.97-.26-1.43Zm-43.47,0c.52-.19,1.1-.39,1.61-.39.19.52.32,1.1.39,1.62.45-.32.9-.71,1.36-.97.97-.58,2.13-.97,3.16-.58.65.19,1.22.58,1.61,1.17.32.39.39.97.45,1.43.13,1.82.06,3.57.06,5.39v3.57h-1.81c0-1.95-.06-3.96-.06-5.91,0-1.1,0-2.21-.13-3.31-.19-.52-.65-.97-1.23-.97-.39,0-.84,0-1.22.13-.84.32-1.61.84-2.32,1.43v8.63h-1.55c0-1.62-.06-3.24-.06-4.93s0-3.37-.13-5.06c.13-.32,0-.78-.13-1.23Z"/>
  <path fill="#fff" d="m21.13,22.21c-.86.31-2.55.81-4.55.81-2.24,0-4.09-.57-5.54-1.96-1.27-1.23-2.07-3.21-2.07-5.51.02-4.42,3.05-7.65,8.02-7.65,1.71,0,3.05.37,3.69.68l-.46,1.56c-.79-.35-1.78-.64-3.27-.64-3.6,0-5.95,2.24-5.95,5.95s2.26,5.98,5.71,5.98c1.25,0,2.11-.18,2.55-.4v-4.42h-3.01v-1.54h4.88v7.12Z"/>
</svg>